<svg xmlns="http://www.w3.org/2000/svg" width="800" height="400" viewBox="0 0 800 400">
  <!-- 背景 -->
  <g>
    <!-- 空 -->
    <rect x="0" y="0" width="800" height="300" fill="#87CEEB" />
    
    <!-- 地面 -->
    <rect x="0" y="300" width="800" height="100" fill="#8B4513" />
    
    <!-- 建物1 -->
    <rect x="50" y="100" width="100" height="200" fill="#A9A9A9" />
    <rect x="60" y="120" width="20" height="30" fill="#4682B4" />
    <rect x="90" y="120" width="20" height="30" fill="#4682B4" />
    <rect x="60" y="160" width="20" height="30" fill="#4682B4" />
    <rect x="90" y="160" width="20" height="30" fill="#4682B4" />
    <rect x="60" y="200" width="20" height="30" fill="#4682B4" />
    <rect x="90" y="200" width="20" height="30" fill="#4682B4" />
    
    <!-- 建物2 -->
    <rect x="200" y="150" width="120" height="150" fill="#CD853F" />
    <rect x="210" y="170" width="25" height="40" fill="#8B4513" />
    <rect x="245" y="170" width="25" height="40" fill="#8B4513" />
    <rect x="280" y="170" width="25" height="40" fill="#8B4513" />
    <rect x="210" y="220" width="25" height="40" fill="#8B4513" />
    <rect x="245" y="220" width="25" height="40" fill="#8B4513" />
    <rect x="280" y="220" width="25" height="40" fill="#8B4513" />
    
    <!-- 建物3 -->
    <rect x="400" y="50" width="150" height="250" fill="#708090" />
    <rect x="420" y="80" width="30" height="40" fill="#B0C4DE" />
    <rect x="470" y="80" width="30" height="40" fill="#B0C4DE" />
    <rect x="420" y="140" width="30" height="40" fill="#B0C4DE" />
    <rect x="470" y="140" width="30" height="40" fill="#B0C4DE" />
    <rect x="420" y="200" width="30" height="40" fill="#B0C4DE" />
    <rect x="470" y="200" width="30" height="40" fill="#B0C4DE" />
    
    <!-- 建物4 -->
    <rect x="600" y="120" width="130" height="180" fill="#B22222" />
    <rect x="620" y="150" width="25" height="35" fill="#FFD700" />
    <rect x="660" y="150" width="25" height="35" fill="#FFD700" />
    <rect x="620" y="200" width="25" height="35" fill="#FFD700" />
    <rect x="660" y="200" width="25" height="35" fill="#FFD700" />
    
    <!-- 太陽 -->
    <circle cx="700" cy="80" r="40" fill="#FFD700" />
    <circle cx="700" cy="80" r="30" fill="#FFA500" />
    
    <!-- 雲1 -->
    <ellipse cx="150" cy="70" rx="50" ry="20" fill="white" opacity="0.8" />
    <ellipse cx="180" cy="60" rx="40" ry="25" fill="white" opacity="0.8" />
    <ellipse cx="120" cy="60" rx="30" ry="15" fill="white" opacity="0.8" />
    
    <!-- 雲2 -->
    <ellipse cx="500" cy="40" rx="60" ry="25" fill="white" opacity="0.8" />
    <ellipse cx="540" cy="30" rx="50" ry="20" fill="white" opacity="0.8" />
    <ellipse cx="460" cy="30" rx="40" ry="15" fill="white" opacity="0.8" />
    
    <!-- 落書き1 -->
    <path d="M100,320 Q120,300 140,320" stroke="#FF4500" stroke-width="3" fill="none" />
    <path d="M150,330 L170,310 L190,330" stroke="#FF4500" stroke-width="3" fill="none" />
    
    <!-- 落書き2 -->
    <path d="M500,350 Q530,320 560,350" stroke="#32CD32" stroke-width="4" fill="none" />
    <circle cx="530" cy="330" r="10" stroke="#32CD32" stroke-width="2" fill="none" />
  </g>
</svg>
